<mxfile host="app.diagrams.net" agent="Mozilla/5.0 (X11; Linux x86_64; rv:133.0) Gecko/20100101 Firefox/133.0" version="25.0.3">
  <diagram name="Билет" id="yb4P6ZWHLYMD32XUaaj4">
    <mxGraphModel dx="869" dy="464" grid="1" gridSize="10" guides="1" tooltips="1" connect="1" arrows="1" fold="1" page="1" pageScale="1" pageWidth="827" pageHeight="1169" math="0" shadow="0">
      <root>
        <mxCell id="0" />
        <mxCell id="1" parent="0" />
        <mxCell id="dq3qynxMWd-uubnoRxsl-30" value="[до сеанса &amp;lt; 30 мин]" style="text;html=1;align=center;verticalAlign=middle;resizable=0;points=[];autosize=1;strokeColor=none;fillColor=none;fontSize=8;rotation=0;" parent="1" vertex="1">
          <mxGeometry x="405" y="440" width="100" height="20" as="geometry" />
        </mxCell>
        <mxCell id="dq3qynxMWd-uubnoRxsl-1" value="" style="ellipse;html=1;shape=startState;fillColor=#000000;strokeColor=#000000;direction=north;aspect=fixed;" parent="1" vertex="1">
          <mxGeometry x="185" y="530" width="20" height="20" as="geometry" />
        </mxCell>
        <mxCell id="dq3qynxMWd-uubnoRxsl-3" value="Создан" style="rounded=1;whiteSpace=wrap;html=1;fontSize=14;" parent="1" vertex="1">
          <mxGeometry x="265" y="525" width="60" height="30" as="geometry" />
        </mxCell>
        <mxCell id="dq3qynxMWd-uubnoRxsl-4" value="Оплачен" style="rounded=1;whiteSpace=wrap;html=1;fontSize=14;" parent="1" vertex="1">
          <mxGeometry x="380" y="525" width="70" height="30" as="geometry" />
        </mxCell>
        <mxCell id="dq3qynxMWd-uubnoRxsl-5" value="Отменён" style="rounded=1;whiteSpace=wrap;html=1;fontSize=14;" parent="1" vertex="1">
          <mxGeometry x="260" y="445" width="70" height="30" as="geometry" />
        </mxCell>
        <mxCell id="dq3qynxMWd-uubnoRxsl-6" value="Использован" style="rounded=1;whiteSpace=wrap;html=1;fontSize=14;" parent="1" vertex="1">
          <mxGeometry x="365" y="665" width="100" height="30" as="geometry" />
        </mxCell>
        <mxCell id="dq3qynxMWd-uubnoRxsl-7" value="Возвращён" style="rounded=1;whiteSpace=wrap;html=1;fontSize=14;" parent="1" vertex="1">
          <mxGeometry x="532.5" y="525" width="85" height="30" as="geometry" />
        </mxCell>
        <mxCell id="dq3qynxMWd-uubnoRxsl-8" value="" style="endArrow=open;html=1;rounded=0;endFill=0;exitX=1;exitY=0.5;exitDx=0;exitDy=0;entryX=0;entryY=0.5;entryDx=0;entryDy=0;" parent="1" source="dq3qynxMWd-uubnoRxsl-3" target="dq3qynxMWd-uubnoRxsl-4" edge="1">
          <mxGeometry width="50" height="50" relative="1" as="geometry">
            <mxPoint x="475" y="575" as="sourcePoint" />
            <mxPoint x="525" y="525" as="targetPoint" />
          </mxGeometry>
        </mxCell>
        <mxCell id="dq3qynxMWd-uubnoRxsl-9" value="" style="endArrow=open;html=1;rounded=0;endFill=0;exitX=0.5;exitY=1;exitDx=0;exitDy=0;entryX=0.5;entryY=0;entryDx=0;entryDy=0;" parent="1" source="dq3qynxMWd-uubnoRxsl-4" target="C0QP1Cck8646qwJd5_Su-2" edge="1">
          <mxGeometry width="50" height="50" relative="1" as="geometry">
            <mxPoint x="325" y="595" as="sourcePoint" />
            <mxPoint x="490" y="530" as="targetPoint" />
          </mxGeometry>
        </mxCell>
        <mxCell id="dq3qynxMWd-uubnoRxsl-10" value="" style="endArrow=open;html=1;rounded=0;endFill=0;exitX=0.5;exitY=0;exitDx=0;exitDy=0;entryX=0.5;entryY=1;entryDx=0;entryDy=0;" parent="1" source="dq3qynxMWd-uubnoRxsl-3" target="dq3qynxMWd-uubnoRxsl-5" edge="1">
          <mxGeometry width="50" height="50" relative="1" as="geometry">
            <mxPoint x="335" y="550" as="sourcePoint" />
            <mxPoint x="390" y="550" as="targetPoint" />
          </mxGeometry>
        </mxCell>
        <mxCell id="dq3qynxMWd-uubnoRxsl-11" value="" style="endArrow=open;html=1;rounded=0;endFill=0;entryX=0;entryY=0.5;entryDx=0;entryDy=0;" parent="1" source="dq3qynxMWd-uubnoRxsl-1" target="dq3qynxMWd-uubnoRxsl-3" edge="1">
          <mxGeometry width="50" height="50" relative="1" as="geometry">
            <mxPoint x="335" y="550" as="sourcePoint" />
            <mxPoint x="390" y="550" as="targetPoint" />
          </mxGeometry>
        </mxCell>
        <mxCell id="dq3qynxMWd-uubnoRxsl-13" value="" style="endArrow=open;html=1;rounded=0;endFill=0;entryX=0.5;entryY=1;entryDx=0;entryDy=0;exitX=0.5;exitY=0;exitDx=0;exitDy=0;" parent="1" source="dq3qynxMWd-uubnoRxsl-7" target="dq3qynxMWd-uubnoRxsl-14" edge="1">
          <mxGeometry width="50" height="50" relative="1" as="geometry">
            <mxPoint x="445" y="430" as="sourcePoint" />
            <mxPoint x="385" y="580" as="targetPoint" />
          </mxGeometry>
        </mxCell>
        <mxCell id="dq3qynxMWd-uubnoRxsl-14" value="" style="rhombus;whiteSpace=wrap;html=1;strokeColor=default;fontSize=9;" parent="1" vertex="1">
          <mxGeometry x="565" y="450" width="20" height="20" as="geometry" />
        </mxCell>
        <mxCell id="dq3qynxMWd-uubnoRxsl-15" value="" style="ellipse;html=1;shape=endState;fillColor=#000000;strokeColor=#000000;aspect=fixed;" parent="1" vertex="1">
          <mxGeometry x="405" y="730" width="20" height="20" as="geometry" />
        </mxCell>
        <mxCell id="dq3qynxMWd-uubnoRxsl-17" value="" style="endArrow=open;html=1;rounded=0;endFill=0;exitX=0.5;exitY=1;exitDx=0;exitDy=0;" parent="1" source="dq3qynxMWd-uubnoRxsl-6" target="dq3qynxMWd-uubnoRxsl-15" edge="1">
          <mxGeometry width="50" height="50" relative="1" as="geometry">
            <mxPoint x="740" y="530" as="sourcePoint" />
            <mxPoint x="770" y="570" as="targetPoint" />
          </mxGeometry>
        </mxCell>
        <mxCell id="dq3qynxMWd-uubnoRxsl-18" value="" style="endArrow=open;html=1;rounded=0;endFill=0;entryX=1;entryY=0.5;entryDx=0;entryDy=0;exitX=0;exitY=0.5;exitDx=0;exitDy=0;" parent="1" source="dq3qynxMWd-uubnoRxsl-14" target="dq3qynxMWd-uubnoRxsl-5" edge="1">
          <mxGeometry width="50" height="50" relative="1" as="geometry">
            <mxPoint x="425" y="455" as="sourcePoint" />
            <mxPoint x="425" y="420" as="targetPoint" />
          </mxGeometry>
        </mxCell>
        <mxCell id="dq3qynxMWd-uubnoRxsl-19" value="" style="endArrow=open;html=1;rounded=0;endFill=0;entryX=1;entryY=0;entryDx=0;entryDy=0;exitX=0;exitY=0.5;exitDx=0;exitDy=0;" parent="1" target="dq3qynxMWd-uubnoRxsl-3" edge="1" source="dq3qynxMWd-uubnoRxsl-14">
          <mxGeometry width="50" height="50" relative="1" as="geometry">
            <mxPoint x="415" y="460" as="sourcePoint" />
            <mxPoint x="335" y="500" as="targetPoint" />
          </mxGeometry>
        </mxCell>
        <mxCell id="dq3qynxMWd-uubnoRxsl-20" value="" style="endArrow=open;html=1;rounded=0;endFill=0;entryX=0;entryY=0.5;entryDx=0;entryDy=0;exitX=1;exitY=0.5;exitDx=0;exitDy=0;" parent="1" source="dq3qynxMWd-uubnoRxsl-4" target="dq3qynxMWd-uubnoRxsl-7" edge="1">
          <mxGeometry width="50" height="50" relative="1" as="geometry">
            <mxPoint x="425" y="455" as="sourcePoint" />
            <mxPoint x="425" y="420" as="targetPoint" />
          </mxGeometry>
        </mxCell>
        <mxCell id="dq3qynxMWd-uubnoRxsl-21" value="" style="ellipse;html=1;shape=endState;fillColor=#000000;strokeColor=#000000;aspect=fixed;" parent="1" vertex="1">
          <mxGeometry x="185" y="450" width="20" height="20" as="geometry" />
        </mxCell>
        <mxCell id="dq3qynxMWd-uubnoRxsl-22" value="" style="endArrow=open;html=1;rounded=0;endFill=0;exitX=0;exitY=0.5;exitDx=0;exitDy=0;" parent="1" source="dq3qynxMWd-uubnoRxsl-5" target="dq3qynxMWd-uubnoRxsl-21" edge="1">
          <mxGeometry width="50" height="50" relative="1" as="geometry">
            <mxPoint x="125" y="460" as="sourcePoint" />
            <mxPoint x="225" y="480" as="targetPoint" />
          </mxGeometry>
        </mxCell>
        <mxCell id="dq3qynxMWd-uubnoRxsl-29" value="[до сеанса ≥ 30 мин]" style="text;html=1;align=center;verticalAlign=middle;resizable=0;points=[];autosize=1;strokeColor=none;fillColor=none;fontSize=8;rotation=345;" parent="1" vertex="1">
          <mxGeometry x="405" y="470" width="100" height="20" as="geometry" />
        </mxCell>
        <mxCell id="C0QP1Cck8646qwJd5_Su-2" value="" style="rhombus;whiteSpace=wrap;html=1;strokeColor=default;fontSize=9;" vertex="1" parent="1">
          <mxGeometry x="405" y="610" width="20" height="20" as="geometry" />
        </mxCell>
        <mxCell id="C0QP1Cck8646qwJd5_Su-5" value="" style="endArrow=open;html=1;rounded=0;endFill=0;entryX=0.5;entryY=0;entryDx=0;entryDy=0;exitX=0.5;exitY=1;exitDx=0;exitDy=0;" edge="1" parent="1" source="C0QP1Cck8646qwJd5_Su-2" target="dq3qynxMWd-uubnoRxsl-6">
          <mxGeometry width="50" height="50" relative="1" as="geometry">
            <mxPoint x="540" y="570" as="sourcePoint" />
            <mxPoint x="560" y="560" as="targetPoint" />
          </mxGeometry>
        </mxCell>
        <mxCell id="C0QP1Cck8646qwJd5_Su-7" value="" style="endArrow=open;html=1;rounded=0;exitX=1;exitY=0.5;exitDx=0;exitDy=0;endFill=0;entryX=0.5;entryY=0;entryDx=0;entryDy=0;" edge="1" parent="1" source="C0QP1Cck8646qwJd5_Su-2" target="dq3qynxMWd-uubnoRxsl-5">
          <mxGeometry width="50" height="50" relative="1" as="geometry">
            <mxPoint x="485" y="590" as="sourcePoint" />
            <mxPoint x="295" y="420" as="targetPoint" />
            <Array as="points">
              <mxPoint x="635" y="620" />
              <mxPoint x="635" y="420" />
              <mxPoint x="295" y="420" />
            </Array>
          </mxGeometry>
        </mxCell>
        <mxCell id="C0QP1Cck8646qwJd5_Su-8" value="выполнена отмена /&lt;br&gt;аннулировать билет" style="text;html=1;align=center;verticalAlign=middle;resizable=0;points=[];autosize=1;strokeColor=none;fillColor=none;fontSize=8;rotation=0;" vertex="1" parent="1">
          <mxGeometry x="200" y="485" width="100" height="30" as="geometry" />
        </mxCell>
        <mxCell id="C0QP1Cck8646qwJd5_Su-10" value="[возврат] /&lt;br&gt;определить статус" style="text;html=1;align=center;verticalAlign=middle;resizable=0;points=[];autosize=1;strokeColor=none;fillColor=none;fontSize=8;rotation=0;" vertex="1" parent="1">
          <mxGeometry x="530" y="422.5" width="90" height="30" as="geometry" />
        </mxCell>
        <mxCell id="C0QP1Cck8646qwJd5_Su-11" value="[посещение] /&lt;br&gt;&lt;div&gt;ожидать зрителя&lt;/div&gt;" style="text;html=1;align=center;verticalAlign=middle;resizable=0;points=[];autosize=1;strokeColor=none;fillColor=none;fontSize=8;rotation=0;" vertex="1" parent="1">
          <mxGeometry x="405" y="565" width="90" height="30" as="geometry" />
        </mxCell>
        <mxCell id="C0QP1Cck8646qwJd5_Su-12" value="произведена оплата /&lt;br&gt;отправить билет" style="text;html=1;align=center;verticalAlign=middle;resizable=0;points=[];autosize=1;strokeColor=none;fillColor=none;fontSize=8;rotation=0;" vertex="1" parent="1">
          <mxGeometry x="300" y="550" width="100" height="30" as="geometry" />
        </mxCell>
        <mxCell id="C0QP1Cck8646qwJd5_Su-14" value="оформлен возврат /&lt;br&gt;вернуть билет" style="text;html=1;align=center;verticalAlign=middle;resizable=0;points=[];autosize=1;strokeColor=none;fillColor=none;fontSize=8;rotation=0;" vertex="1" parent="1">
          <mxGeometry x="440" y="512.5" width="100" height="30" as="geometry" />
        </mxCell>
        <mxCell id="C0QP1Cck8646qwJd5_Su-17" value="предъявлен для входа /&lt;br&gt;реализовать билет" style="text;html=1;align=center;verticalAlign=middle;resizable=0;points=[];autosize=1;strokeColor=none;fillColor=none;fontSize=8;rotation=0;" vertex="1" parent="1">
          <mxGeometry x="310" y="627.5" width="110" height="30" as="geometry" />
        </mxCell>
        <mxCell id="C0QP1Cck8646qwJd5_Su-19" value="не задействован /&lt;br&gt;аннулировать билет" style="text;html=1;align=center;verticalAlign=middle;resizable=0;points=[];autosize=1;strokeColor=none;fillColor=none;fontSize=8;rotation=0;" vertex="1" parent="1">
          <mxGeometry x="542.5" y="590" width="100" height="30" as="geometry" />
        </mxCell>
      </root>
    </mxGraphModel>
  </diagram>
</mxfile>
